<svg width="305" height="261" viewBox="0 0 305 261" fill="none" xmlns="http://www.w3.org/2000/svg">
<path d="M228.603 167.654C233.231 172.696 237.669 177.352 241.903 181.396C238.492 175.787 234.89 170.414 231.117 165.25C230.001 165.429 228.899 165.532 228.044 165.545C228.265 166.075 228.457 166.83 228.603 167.654Z" fill="#EDD5B9"/>
<path d="M150.316 93.1058C166.281 102.485 181.358 116.42 195.34 131.056C196.618 128.939 197.473 131.238 198.101 133.97C207.83 144.314 217.009 154.877 225.567 164.323C225.565 164.282 225.564 164.238 225.562 164.199C226.24 163.015 227.639 162.774 229.213 162.696C171.555 85.9961 75.5906 56.4782 0.768295 0.316895C31.9247 39.0398 106.101 58.7228 150.316 93.1058Z" fill="#EDD5B9"/>
<path d="M84.0885 68.4048C80.1963 66.0183 72.0782 46.5354 69.7633 52.401C73.9542 58.8561 78.6065 65.0882 83.4347 71.2313C84.4655 71.077 84.8889 71.8532 84.9529 73.1543C98.5062 90.2292 113.207 106.718 122.994 125.474C123.463 125.203 123.952 124.949 124.453 124.712C117.851 103.913 96.9163 86.1165 84.0885 68.4048Z" fill="#EDD5B9"/>
<path d="M299.741 242.419C304.384 228.129 255.002 176.799 250.357 189.588C273.187 195.017 291.29 225.359 299.421 241.196C292.484 234.597 285.16 221.765 276.537 219.752C273.549 224.449 285.955 241.49 295.368 250.543C298.395 253.172 301.226 255.419 303.046 255.786C303.025 255.912 302.998 256.029 302.969 256.141C303.995 256.458 304.713 256.273 305 255.448C293.386 246.798 282.533 230.569 276.734 221.265C285.049 226.156 292.084 241.185 299.741 242.419Z" fill="#EDD5B9"/>
<path d="M295.368 250.543C287.322 243.553 277.884 233.853 282.308 249.511C283.324 250.534 284.224 251.934 285.115 253.404C287.194 255.348 289.397 257.167 291.721 258.849C290.618 254.085 282.915 249.381 283.084 244.394C283.181 243.372 284.336 243.179 285.316 244.058C288.166 247.671 301.343 262.353 302.969 256.141C302.998 256.029 303.024 255.912 303.046 255.786C301.225 255.419 298.395 253.173 295.368 250.543Z" fill="#EDD5B9"/>
<path d="M266.271 226.502C252.827 206.198 257.654 234.096 260.947 234.118C251.329 235.751 252.55 196.415 245.851 201.917C251.243 211.564 248.13 236.791 262.201 236.279C264.168 231.332 254.997 215.675 261.408 223.855C265.412 231.299 287.471 267.764 293.185 259.895C292.688 259.556 292.206 259.201 291.72 258.85C289.397 257.168 287.193 255.349 285.114 253.405C277.071 245.883 270.833 236.548 266.271 226.502Z" fill="#EDD5B9"/>
<path d="M229.724 213.7C230.068 219.286 243.4 242.789 244.465 228.898C239.999 221.402 237.314 184.398 231.722 187.061C233.931 199.863 240.917 225.145 242.221 230.749C236.636 226.831 234.141 218.645 231.889 212.237C218.772 196.757 228.843 237.984 234.576 249.564C228.976 241.952 218.591 232.836 218.639 218.369C217.954 215.531 216.849 211.137 213.182 211.303C209.164 214.816 214.95 225.536 211.005 228.872C203.393 226.69 211.726 191.387 199.354 211.107C192.028 207.519 222.375 181.768 224.502 177.705C212.76 181.73 200.813 197.742 195.523 209.754C195.695 215.404 202.433 214.283 203.043 209.378C207.013 201.274 200.704 233.959 212.235 231.101C216.092 229.192 214.936 218.18 214.237 214.641C219.233 225.869 220.775 247.885 235.849 251.723C236.039 251.969 236.219 252.162 236.387 252.291C236.289 252.12 236.182 251.949 236.077 251.776C236.773 251.944 237.497 252.076 238.252 252.164C232.946 241.997 232.02 228.991 227.68 217.789C226.758 212.932 227.993 207.212 229.724 213.7Z" fill="#EDD5B9"/>
<path d="M260.675 160.177C254.744 161.377 224.708 152.426 226.813 156.988C243.005 160.945 269.357 165.109 280.843 167.072C278.636 169.447 274.804 168.646 271.974 167.792C243.229 164.049 275.784 175.425 283.156 178.211C283.181 187.619 268.756 178.596 263.645 177.973C257.188 182.795 272.531 186.76 274.173 189.472C278.744 191.746 266.437 186.558 263.134 184.225C255.354 180.87 248.325 172.877 241.053 170.513C243.124 182.209 300.742 203.612 265.855 181.661C274.505 184.878 292.027 187.252 283.475 175.309C280.311 175.02 274.972 172.228 270.409 170.295C291.391 171.7 281.863 163.688 260.675 160.177Z" fill="#EDD5B9"/>
<path d="M225.562 164.199C225.564 164.238 225.565 164.282 225.567 164.323C225.662 166.765 225.422 172.787 228.665 172.38C229.027 171.807 228.939 169.558 228.603 167.654C228.458 166.83 228.266 166.075 228.044 165.544C228.9 165.532 230.002 165.428 231.118 165.249C234.65 164.683 238.32 163.359 234.746 161.734C233.297 162.745 231.126 162.6 229.213 162.695C227.64 162.774 226.24 163.016 225.562 164.199Z" fill="#EDD5B9"/>
<path d="M254.888 199.555C255.344 199.167 238.921 180.667 241.315 187.651C244.492 191.737 249.546 200.442 254.888 199.555Z" fill="#EDD5B9"/>
<path d="M228.198 177.391C228.184 181.342 227.468 185.232 226.098 188.937C229.177 196.365 233.527 171.185 228.198 177.391Z" fill="#EDD5B9"/>
<path d="M142.349 170.287C147.463 178.193 153.439 185.546 160.153 192.148C161.253 191.905 161.688 191.27 161.666 190.369C161.75 190.378 161.832 190.385 161.913 190.384C161.827 190.326 161.743 190.261 161.658 190.2C161.335 186.297 153.23 177.873 152.522 174.168C152.225 173.508 152.017 172.614 152.043 171.898C154.217 175.363 165.318 184.631 164.756 178.882C164.664 178.823 164.574 178.759 164.482 178.696C164.489 178.694 164.495 178.693 164.501 178.69C163.49 177.735 162.542 176.867 161.648 176.076C158.068 171.974 155.019 165.631 151.974 161.048C158.524 167.397 166.437 175.594 170.05 169.246C162.716 165.496 136.789 134.497 131.47 135.383C131.647 135.991 131.794 136.679 131.922 137.334C141.334 147.018 169.737 172.017 165.134 168.601C159.696 166.889 148.033 149.975 144.966 155.127C147.41 158.411 150.618 164.978 154.076 170.378C148.259 167.216 148.608 172.059 151.19 177.772C147.878 172.896 144.682 168.307 140.866 166.686C139.257 168.141 139.29 170.937 139.725 173.041C134.89 164.626 133.368 150.529 130.127 140.433C124.098 134.021 136.178 183.592 142.597 177.069C143.158 176.744 143.423 175.929 143.051 175.363C141.518 174.08 142.025 171.95 142.349 170.287Z" fill="#EDD5B9"/>
<path d="M162.073 131.872C167.172 133.165 173.005 133.432 174.824 131.404C171.356 123.083 128.71 111.185 128.565 119.644C142.36 116.91 167.439 128.188 172.201 130.673C168.762 132.065 157.937 125.814 153.907 126.559C153.815 126.504 153.723 126.451 153.633 126.398C153.605 126.478 153.587 126.559 153.575 126.639C152.798 126.887 152.35 127.476 152.374 128.55C159.23 133.652 167.643 138.544 173.941 143.758C170.796 142.536 162.696 140.712 160.305 138.126C159.136 137.931 158.887 138.677 159.196 139.856C159.139 139.981 159.09 140.122 159.048 140.283C159.159 140.333 159.266 140.381 159.376 140.431C159.541 140.885 159.768 141.383 160.04 141.903C154.875 137.328 149.33 133.098 149.267 139.714C147.28 135.369 136.928 127.548 134.021 126.036C133.411 129.222 144.83 139.969 149.351 141.42C149.362 141.531 149.371 141.638 149.384 141.753C149.443 141.665 149.487 141.569 149.522 141.469C150.805 141.826 151.466 141.353 151.01 139.608C153.974 136.304 161.459 149.005 166.204 150.289C168.998 150.585 167.173 146.114 164.649 142.737C188.755 152.89 174.597 140.612 162.073 131.872Z" fill="#EDD5B9"/>
<path d="M114.858 150.189C110.539 147.485 110.723 160.732 106.386 162.577C105.326 159.41 107.362 154.064 109.297 150.823C109.923 149.817 108.621 148.366 107.591 149.116C104.296 151.922 94.9805 157.626 93.832 159.335C95.3278 154.887 101.51 150.088 104.636 145.678C105.218 141.838 99.2858 144.386 95.2791 145.526C97.233 143.46 99.6019 139.022 103.023 139.284C104.16 138.264 103.715 137.541 102.422 137.038C102.412 136.983 102.401 136.929 102.386 136.872C102.299 136.885 102.205 136.906 102.112 136.927C98.9692 135.887 91.9264 135.901 88.8586 136.147C94.2279 132.377 121.034 131.102 116.615 126C107.203 130.27 91.5715 128.527 85.6352 137.09C87.052 138.231 92.8548 139.472 97.2508 139.447C93.4509 142.223 90.0175 146.477 93.235 148.403C110.69 143.737 98.047 145.574 91.9937 156.79C89.2604 161.82 94.2629 163.535 97.386 159.613C102.194 157.949 106.328 152.25 107.155 151.036C106.834 151.538 105.985 152.913 104.473 155.591C100.591 165.295 109.085 168.236 112.143 158.256C112.365 157.436 113.003 156.218 113.574 154.999C114.226 158.476 114.935 162.229 118.529 161.845C123.365 159.619 125.994 130.419 121.519 130.294C121.236 130.507 120.953 130.712 120.668 130.9C121.562 139.094 119.745 174.457 114.858 150.189Z" fill="#EDD5B9"/>
<path d="M125.208 127.342C127.09 125.951 129.165 124.859 131.722 125.091C133.33 125.096 133.365 122.586 131.749 122.593C129.836 122.749 126.998 123.505 124.453 124.712C123.953 124.949 123.463 125.203 122.995 125.474C120.19 127.099 118.124 129.31 118.786 131.876C119.427 131.649 120.051 131.309 120.667 130.9C120.952 130.711 121.235 130.507 121.519 130.293C122.432 129.603 123.345 128.806 124.296 128.045C124.596 127.805 124.9 127.57 125.208 127.342Z" fill="#EDD5B9"/>
<path d="M128.952 134.843C129.971 142.081 134.197 153.792 141.729 155.184C140.66 150.232 132.977 146.059 132.396 139.567C132.25 139.109 132.104 138.256 131.922 137.334C131.794 136.679 131.647 135.991 131.47 135.384C130.97 133.663 130.226 132.599 128.952 134.843Z" fill="#EDD5B9"/>
<path d="M228.262 78.666C230.018 83.2633 217.445 85.4056 221.486 90.099C225.434 91.5524 228.445 92.5866 230.649 93.3C227.123 92.5371 221.941 91.7014 216.013 91.5129C214.826 91.4684 214.21 93.3128 215.37 93.8399C226.095 99.1989 247.386 116.079 225.462 105.779C215.865 100.48 209.527 97.2738 206.592 96.4713C206.218 96.1236 205.838 95.7712 205.447 95.4106C205.412 95.7009 205.42 95.9884 205.466 96.2721C202.906 96.2134 206.793 100.772 217.514 110.764C210.175 105.062 193.277 98.6273 187.975 87.0687C185.459 85.3004 179.809 72.0325 178.238 77.926C184.552 97.1885 239.185 129.54 213.238 102.923C218.957 105.704 226.338 108.103 230.035 110.241C246.473 115.428 231.612 99.0766 222.143 94.2251C229.2 95.6044 238.291 99.2633 239.255 95.493C224.646 83.416 219.75 94.9601 230.912 79.9094C228.75 72.5362 193.658 72.4655 191.626 74.4497C192.057 74.7376 192.474 75.0491 192.878 75.3832C196.295 76.3761 206.628 77.5866 228.262 78.666Z" fill="#EDD5B9"/>
<path d="M176.333 65.8004C176.804 59.3016 183.856 46.3362 183.845 40.0442C191.899 58.1827 192.785 27.508 193.749 24.9244C195.421 29.5637 191.824 39.3769 191.339 46.0479C196.742 49.607 207.579 27.3374 208.763 21.2934C209.014 29.6028 197.347 41.9256 197.609 50.9718C205.378 52.6943 205.731 39.7584 212.79 37.8191C213.901 37.0042 216.853 36.2093 217.647 35.8869C217.816 36.1835 217.728 36.3166 217.757 36.6174C213.17 45.5966 200.084 50.0928 195.773 58.6015C196.243 58.5628 196.862 58.488 197.59 58.3861C197.618 58.5392 197.665 58.6947 197.735 58.8528C197.891 58.6648 198.056 58.4797 198.22 58.2946C203.91 57.4493 214.793 55.2721 216.292 54.8232C212.533 60.6065 178.593 61.4268 182.938 67.3761C193.821 62.3648 212.557 64.6032 218.953 54.124C216.808 52.238 208.102 52.5716 202.479 54.3465C209.562 48.6452 218.953 43.6506 220.067 35.2068C212.044 28.5833 204.467 44.295 199.666 48.5288C202.676 44.2284 218.431 15.5047 207.312 18.1852C204.744 26.8678 200.438 35.0309 194.699 42.0325C197.194 35.2285 198.574 21.4398 192.491 22.7904C186.479 32.904 191.899 54.4813 184.735 35.6827C184.253 34.9756 183.522 35.5716 182.671 37.0134C182.638 36.9897 182.612 36.9589 182.578 36.9364C182.596 36.9855 182.614 37.0296 182.632 37.0783C178.489 44.1893 171.554 71.0445 176.333 65.8004Z" fill="#EDD5B9"/>
<path d="M167.159 71.3489C164.548 60.3086 149.969 51.0287 147.34 38.4172C144.465 23.7496 153.43 39.6298 156.297 43.9659C157.176 43.9151 157.823 43.4817 158.308 42.7745C158.356 42.7545 158.403 42.7358 158.452 42.71C158.437 42.6809 158.42 42.6497 158.404 42.6197C160.249 39.6476 159.557 32.3848 160.521 27.3036C160.971 35.1468 165.707 51.8082 168.069 48.8219C168.574 44.8839 172.356 35.0495 173.001 32.2258C173.819 38.4305 162.755 63.1081 169.232 61.8506C168.677 54.1855 181.628 30.386 171.587 29.4026C162.489 56.6089 169.571 42.8639 161.92 22.8823C158.816 20.6165 156.049 32.7042 156.336 39.1048C152.25 32.656 144.857 23.3881 144.277 35.1152C146.741 48.7071 157.913 62.6039 167.159 71.3489Z" fill="#EDD5B9"/>
<path d="M195.435 83.3854C195.866 84.9311 198.28 84.2997 197.848 82.7494C196.687 79.4998 194.976 77.1192 192.878 75.3829C192.474 75.0489 192.057 74.7373 191.626 74.4495C184.406 69.6354 173.463 71.0921 164.064 71.543C164.297 72.2893 164.516 73.1487 164.73 74.0568C176.647 73.3879 190.341 70.788 195.435 83.3854Z" fill="#EDD5B9"/>
<path d="M157.997 71.61C146.839 70.4998 134.787 64.3596 124.116 70.5917C122.739 71.4124 123.987 73.5751 125.371 72.7498C134.913 67.3201 145.798 72.4656 155.731 73.8479C157.65 74.1478 159.73 74.2169 161.901 74.1703C161.68 73.2298 161.493 72.3612 161.348 71.6391C160.194 71.662 159.073 71.6579 157.997 71.61Z" fill="#EDD5B9"/>
<path d="M191.483 57.5191C193.024 57.0773 192.393 54.6626 190.846 55.1039C185.272 56.69 175.495 63.9105 177.954 69.8589C181.941 66.1958 184.432 58.5208 191.483 57.5191Z" fill="#EDD5B9"/>
<path d="M167.574 82.8816C166.309 81.7389 165.552 77.5446 164.73 74.0559C164.516 73.1478 164.298 72.2884 164.064 71.5422C163.32 69.1611 162.427 67.9407 161.057 70.0363C161.11 70.3928 161.21 70.9494 161.349 71.6387C161.493 72.3612 161.681 73.2298 161.902 74.1699C163.194 79.6653 165.647 87.5921 167.574 82.8816Z" fill="#EDD5B9"/>
<path d="M83.4348 71.231C83.1944 71.2672 82.9223 71.3512 82.612 71.4939C83.0808 75.0759 77.1166 90.2035 82.6232 87.6732C82.295 85.1603 85.1402 76.9423 84.9531 73.154C84.889 71.8533 84.4656 71.0771 83.4348 71.231Z" fill="#EDD5B9"/>
<path d="M74.7063 93.6527C76.044 92.134 83.6384 85.9119 78.0523 86.6956C70.6193 93.7463 44.8473 119.144 63.1056 110.94C58.8726 115.352 56.5025 122.216 64.1006 117.428C60.6343 124.925 63.9662 136.691 72.3023 120.276C72.6584 123.754 73.6514 127.674 73.8568 129.655C77.4904 131.718 81.0752 121.971 81.6954 115.142C90.7337 137.123 84.6967 87.7642 78.6937 93.6194C80.8664 99.2413 82.4076 105.112 83.2582 111.08C82.1813 109.176 80.9716 107.594 80.185 107.171C80.1622 107.701 80.096 108.294 79.9983 108.931C79.8207 108.923 79.6305 108.945 79.4238 109.007C79.5502 109.377 79.6734 109.733 79.7957 110.083C78.5203 116.666 74.6926 126.841 76.2653 129.02C74.1081 126.327 76.0973 117.337 75.1672 113.951C75.2175 113.829 75.2674 113.709 75.3181 113.584C75.2195 113.572 75.131 113.572 75.0382 113.566C74.6838 112.693 74.0403 112.367 72.9151 112.916C73.2894 117.712 65.9687 122.924 64.8452 126.085C64.7362 121.824 69.3406 116.01 70.2757 112.743C70.3702 112.662 70.4604 112.588 70.5561 112.506C70.482 112.508 70.4089 112.512 70.3356 112.517C70.6048 111.4 70.3872 110.617 69.3061 110.35C68.272 110.995 67.3568 111.586 66.5432 112.129C67.3406 110.994 68.0661 109.67 68.5885 108.177C68.8306 108.046 69.0661 107.919 69.3165 107.781C69.1272 107.745 68.9338 107.73 68.7375 107.728C68.9205 107.148 69.0736 106.545 69.1863 105.917C47 117.316 66.126 104.854 74.7063 93.6527Z" fill="#EDD5B9"/>
<path d="M85.0108 94.6762C84.5957 93.1271 82.1581 93.7523 82.6015 95.3101C84.9979 98.9478 89.7833 119.365 93.7467 114.477C93.0283 113.332 93.151 111.294 93.2525 109.425C98.0358 116.853 100.297 117.111 100.708 115.04C100.755 115.003 100.801 114.974 100.849 114.934C100.813 114.907 100.777 114.873 100.74 114.844C100.958 113.229 100.198 110.452 98.7209 108.404C106.576 115.094 108.322 114.958 106.97 111.849C107 111.849 107.03 111.851 107.059 111.851C107.012 111.808 106.96 111.758 106.909 111.71C103.728 104.667 85.7196 83.4736 85.0974 89.39C89.7683 92.0872 93.8444 98.8309 97.7804 104.23C96.8544 104.062 96.0815 104.369 95.599 105.432C95.8344 106.076 96.0237 107.067 96.2192 108.182C94.401 105.313 92.5125 103.071 90.7675 104.958C93.0657 125.233 91.0557 103.54 85.0108 94.6762Z" fill="#EDD5B9"/>
<path d="M119.038 90.9169C112.149 87.053 104.712 77.9273 97.4227 77.4377C97.2638 79.4756 122.446 98.0105 119.038 90.9169Z" fill="#EDD5B9"/>
<path d="M59.4282 47.5732C61.2843 52.2379 59.8729 60.8286 63.7864 63.4974C65.7448 62.2774 61.9661 41.0441 59.4282 47.5732Z" fill="#EDD5B9"/>
<path d="M126.936 54.4972C124.39 54.2426 121.844 53.9881 119.297 53.7339C113.074 57.0213 133.121 58.5812 126.936 54.4972Z" fill="#EDD5B9"/>
<path d="M193.397 174.846C193.707 173.874 193.884 172.906 193.883 171.988C192.888 171.063 192.119 170.929 191.546 171.351C191.524 171.341 191.505 171.328 191.482 171.319C191.465 171.362 191.449 171.401 191.432 171.444C190.933 171.897 190.594 172.8 190.392 173.978C182.581 192.281 183.224 173.425 192.398 162.651C198.973 142.914 183.588 171.412 182.395 177.108C180.863 187.014 186.388 185.123 190.301 180.361C191.207 190.459 196.101 201.257 199.009 169.083C198.36 173.242 193.865 180.892 193.107 185.43C192.542 181.964 193.561 177.807 193.397 174.846Z" fill="#EDD5B9"/>
<path d="M195.34 131.056C195.229 131.24 195.115 131.457 194.998 131.709C194.282 142.533 214.268 178.29 203.984 160.032C203.898 160.454 203.793 161.019 203.679 161.689C203.446 161.628 203.201 161.584 202.928 161.578C203.144 161.88 203.351 162.167 203.553 162.445C203.024 165.709 202.375 170.796 202.416 174.716C201.917 170.769 201.74 166.659 199.075 168.522C199.066 168.636 199.049 168.758 199.033 168.878C199.284 172.075 200.132 184.207 204.439 181.317C204.541 177.916 206.517 170.443 206.079 165.729C214.822 176.198 200.086 145.145 199.224 139.179C198.922 138.341 198.576 136.033 198.101 133.97C197.473 131.239 196.619 128.94 195.34 131.056Z" fill="#EDD5B9"/>
</svg>
