<svg width="98" height="161" viewBox="0 0 98 161" fill="none" xmlns="http://www.w3.org/2000/svg">
<path d="M0.564616 5.51484C0.564616 8.46036 2.95243 10.8482 5.89795 10.8482C8.84347 10.8482 11.2313 8.46036 11.2313 5.51484C11.2313 2.56932 8.84347 0.181507 5.89795 0.181507C2.95243 0.181507 0.564616 2.56932 0.564616 5.51484ZM59.8604 78.1444L60.563 78.8559L59.8604 78.1444ZM86.7687 153.827C86.7687 156.772 89.1565 159.16 92.102 159.16C95.0476 159.16 97.4354 156.772 97.4354 153.827C97.4354 150.881 95.0476 148.493 92.102 148.493C89.1565 148.493 86.7687 150.881 86.7687 153.827ZM10.1206 5.49209C10.6601 5.37366 11.0014 4.84036 10.8829 4.30092C10.7645 3.76148 10.2312 3.42019 9.69175 3.53862L10.1206 5.49209ZM22.091 2.01333C21.5389 2.02522 21.1009 2.48246 21.1128 3.03462C21.1247 3.58678 21.5819 4.02475 22.1341 4.01286L22.091 2.01333ZM30.1639 4.44427C30.7113 4.51694 31.2141 4.13203 31.2868 3.58455C31.3594 3.03706 30.9745 2.53433 30.427 2.46166L30.1639 4.44427ZM42.5511 5.67717C42.0405 5.46677 41.456 5.71015 41.2456 6.22079C41.0352 6.73142 41.2786 7.31594 41.7892 7.52635L42.5511 5.67717ZM48.8999 11.2425C49.364 11.5418 49.9829 11.4082 50.2822 10.944C50.5815 10.4798 50.4478 9.86094 49.9837 9.56166L48.8999 11.2425ZM59.5177 17.7272C59.1499 17.3152 58.5178 17.2793 58.1058 17.6471C57.6937 18.0149 57.6579 18.647 58.0256 19.0591L59.5177 17.7272ZM62.8337 25.4916C63.1252 25.9607 63.7418 26.1046 64.2109 25.8132C64.68 25.5217 64.824 24.9051 64.5325 24.436L62.8337 25.4916ZM69.7556 35.8371C69.5905 35.3101 69.0293 35.0167 68.5023 35.1819C67.9753 35.347 67.682 35.9081 67.8471 36.4351L69.7556 35.8371ZM69.5917 44.2793C69.665 44.8267 70.1681 45.211 70.7156 45.1378C71.263 45.0645 71.6473 44.5614 71.5741 44.014L69.5917 44.2793ZM71.5517 56.5695C71.6296 56.0228 71.2496 55.5163 70.7028 55.4384C70.1561 55.3604 69.6496 55.7405 69.5717 56.2872L71.5517 56.5695ZM67.657 64.0523C67.4703 64.5721 67.7402 65.1448 68.26 65.3315C68.7797 65.5183 69.3525 65.2484 69.5392 64.7286L67.657 64.0523ZM63.3946 75.7235C63.741 75.2934 63.6733 74.6639 63.2432 74.3174C62.8131 73.971 62.1836 74.0387 61.8371 74.4688L63.3946 75.7235ZM56.3385 80.249C55.95 80.6416 55.9534 81.2747 56.3459 81.6632C56.7385 82.0517 57.3717 82.0483 57.7601 81.6558L56.3385 80.249ZM49.7253 90.0885C50.098 89.6809 50.0698 89.0484 49.6623 88.6756C49.2547 88.3029 48.6222 88.3311 48.2495 88.7386L49.7253 90.0885ZM43.048 94.6074C42.6886 95.0268 42.7372 95.6581 43.1565 96.0175C43.5759 96.3769 44.2072 96.3283 44.5666 95.9089L43.048 94.6074ZM37.2141 105.019C37.5467 104.578 37.4588 103.951 37.0178 103.618C36.5768 103.286 35.9498 103.374 35.6173 103.815L37.2141 105.019ZM31.0692 110.19C30.7615 110.649 30.8839 111.27 31.3426 111.578C31.8012 111.885 32.4225 111.763 32.7301 111.304L31.0692 110.19ZM26.8016 121.308C27.0512 120.815 26.8542 120.214 26.3615 119.964C25.8688 119.714 25.2671 119.911 25.0175 120.404L26.8016 121.308ZM21.8643 127.675C21.6798 128.196 21.9523 128.767 22.4729 128.952C22.9935 129.136 23.565 128.864 23.7494 128.343L21.8643 127.675ZM21.6669 139.471C21.6565 138.919 21.2003 138.48 20.6481 138.491C20.0959 138.501 19.6568 138.957 19.6673 139.509L21.6669 139.471ZM21.4714 147.49C21.7115 147.987 22.3094 148.195 22.8067 147.955C23.304 147.715 23.5125 147.117 23.2723 146.62L21.4714 147.49ZM31.0726 154.227C30.5826 153.972 29.9788 154.163 29.724 154.653C29.4692 155.143 29.6598 155.747 30.1498 156.002L31.0726 154.227ZM37.6953 158.754C38.2317 158.886 38.7731 158.557 38.9046 158.021C39.036 157.484 38.7077 156.943 38.1713 156.812L37.6953 158.754ZM49.5927 158.299C49.0409 158.277 48.5756 158.706 48.5534 159.258C48.5312 159.81 48.9606 160.275 49.5124 160.297L49.5927 158.299ZM57.3844 160.272C57.9362 160.249 58.3647 159.783 58.3414 159.231C58.3182 158.679 57.852 158.251 57.3002 158.274L57.3844 160.272ZM68.8937 157.246C68.346 157.317 67.9597 157.819 68.0308 158.366C68.102 158.914 68.6036 159.3 69.1513 159.229L68.8937 157.246ZM76.9361 158.04C77.4802 157.945 77.8444 157.427 77.7496 156.883C77.6548 156.339 77.1369 155.975 76.5928 156.07L76.9361 158.04ZM88.0279 153.759C87.4894 153.882 87.1523 154.418 87.275 154.957C87.3977 155.495 87.9337 155.832 88.4722 155.71L88.0279 153.759ZM6.16649 6.47811C7.50299 6.10551 8.82113 5.77739 10.1206 5.49209L9.69175 3.53862C8.35522 3.83204 7.00099 4.1692 5.62941 4.55157L6.16649 6.47811ZM22.1341 4.01286C24.9209 3.95286 27.5988 4.10377 30.1639 4.44427L30.427 2.46166C27.7581 2.10738 24.9779 1.95117 22.091 2.01333L22.1341 4.01286ZM41.7892 7.52635C44.3165 8.56771 46.6887 9.81684 48.8999 11.2425L49.9837 9.56166C47.6719 8.07106 45.192 6.76535 42.5511 5.67717L41.7892 7.52635ZM58.0256 19.0591C59.8216 21.0711 61.4269 23.2276 62.8337 25.4916L64.5325 24.436C63.0662 22.0763 61.3921 19.8272 59.5177 17.7272L58.0256 19.0591ZM67.8471 36.4351C68.6542 39.0108 69.2384 41.6391 69.5917 44.2793L71.5741 44.014C71.2054 41.2597 70.5964 38.5202 69.7556 35.8371L67.8471 36.4351ZM69.5717 56.2872C69.1928 58.9443 68.5572 61.5471 67.657 64.0523L69.5392 64.7286C70.4871 62.0905 71.1544 59.3553 71.5517 56.5695L69.5717 56.2872ZM61.8371 74.4688C61.0097 75.4959 60.1169 76.4855 59.1577 77.4329L60.563 78.8559C61.5764 77.8551 62.5199 76.8092 63.3946 75.7235L61.8371 74.4688ZM59.1577 77.4329C58.1996 78.3791 57.26 79.3178 56.3385 80.249L57.7601 81.6558C58.6761 80.7301 59.6104 79.7968 60.563 78.8559L59.1577 77.4329ZM48.2495 88.7386C46.4249 90.7335 44.6914 92.6899 43.048 94.6074L44.5666 95.9089C46.1952 94.0087 47.9144 92.0684 49.7253 90.0885L48.2495 88.7386ZM35.6173 103.815C33.9705 105.999 32.455 108.124 31.0692 110.19L32.7301 111.304C34.0938 109.271 35.5877 107.176 37.2141 105.019L35.6173 103.815ZM25.0175 120.404C23.7343 122.937 22.684 125.361 21.8643 127.675L23.7494 128.343C24.5368 126.121 25.5516 123.775 26.8016 121.308L25.0175 120.404ZM19.6673 139.509C19.7231 142.447 20.3248 145.115 21.4714 147.49L23.2723 146.62C22.2653 144.535 21.7179 142.155 21.6669 139.471L19.6673 139.509ZM30.1498 156.002C32.35 157.146 34.8716 158.062 37.6953 158.754L38.1713 156.812C35.4743 156.151 33.1073 155.285 31.0726 154.227L30.1498 156.002ZM49.5124 160.297C51.9938 160.397 54.6192 160.389 57.3844 160.272L57.3002 158.274C54.5839 158.389 52.0137 158.396 49.5927 158.299L49.5124 160.297ZM69.1513 159.229C71.6593 158.904 74.2549 158.507 76.9361 158.04L76.5928 156.07C73.9382 156.532 71.3712 156.924 68.8937 157.246L69.1513 159.229ZM88.4722 155.71C89.7451 155.42 91.0339 155.116 92.3385 154.798L91.8656 152.855C90.5703 153.17 89.291 153.472 88.0279 153.759L88.4722 155.71Z" fill="#194185"/>
</svg>
